<svg xmlns="http://www.w3.org/2000/svg"  viewBox="0 0 512 512" width="48px" height="48px"><path fill="#127274" d="M235.3 99c-.8-7.1-6.7-21.4-16.1-13.7-7.3 6-7.3 18.4-11 26.5-4.6 10.2-12 18-20.9 24.6-9 6.7-18.5 12.9-25.3 22-7.6 10.2-1.5 29.8 10.4 31.1.8-.9 2-1.4 3.6-1.4 1.6 0 3.2-.2 4.7-.5 0 0 .1 0 .1-.1 1.1-.6 2.2-.8 3.2-.8 15.7-4.9 27.6-22.5 35-35.6 5-8.8 9.4-18.2 12.4-27.9C233.9 115.5 236.2 107.1 235.3 99zM343.4 154.9c-1.4-12.4-10.6-18.6-21.2-23.1-10-4.3-19.4-9.3-24.7-19.2-2.5-4.7-4.1-9.9-5.8-15-1.3-4-3.7-9.4-7.8-11.3-6.6-3.1-12.1 4.9-14 10.2-3.8 10.3.1 23.4 2.9 33.5 3.7 12.9 9.4 27.3 19.5 36.6 8.7 8 18.2 9.8 29.1 12.2 2.4-.3 4.8-.9 7.1-1.8C337.6 173.4 344.6 165.1 343.4 154.9zM269.9 270.2c-2.5-6.7-6.8-14.7-15-14.3-1 0-2-.2-2.7-.5-4.1 4.3-5.4 11.9-6.2 17.3-2.4 17.3-.5 35 1.2 52.2.7 7.2.7 14.5 2.6 21.5 1 3.4 4.3 16 9.1 12.2 8.5-6.8 11.1-20.1 12.4-30.2 1.5-11.8 1.6-23.7 1.6-35.6C273 285.1 272.7 277.7 269.9 270.2zM233.8 220.5c-.5-5.1-1.6-10.1-2.9-15.1-5.7 4.5-10.5 11.1-12.7 17.3-1.2 3.3-1.3 6.9 1.9 9.1 2.8 1.9 7.5 3.5 10.9 2.8 1.2-.2 2.2-2.1 2.6-4.2C234.2 227.1 234.1 223.8 233.8 220.5zM278.5 205.8c-4.6-5.4-12.9-10.8-20.4-9.6 3.5 5.2 5.7 11.5 8.5 16.9 2 3.9 4 7.9 6.8 11.4.7.9 1.9 2.3 2.5 2.6 1 .6.7.5 1.3.6-1-.1.4-.2.1 0 3.1-1.2 5.6-6.2 6-9.6C283.7 213.6 281.4 209.2 278.5 205.8z"/><path fill="#D6E5E5" d="M336.2,43.7c-16.1-12-36.3-19.5-55.9-23.5c-20.6-4.2-41.9-4.9-62.6-1.3c-20.1,3.4-39.9,10.8-56.5,22.8c-17.2,12.4-33,30.8-38.5,51.6c-6.6,24.7-1.7,50.4,3.8,74.8c5.6,25,12.5,50.2,12,76c0,1.2-0.4,2.2-0.9,3c20.3,8.3,41.2,17.8,56,34.4c14.5,16.4,21,35.6,25.8,56.6c3.6,15.8,8.2,34.9,20,46.8c5.5,5.5,12.2,8.8,20.2,7.6c9.4-1.5,19.2-7.2,25-14.7c12.3-15.8,10.2-38.4,11.3-57.2c0.6-10.4,1.6-20.7,5.3-30.6c3.8-10.3,10.1-19.6,17.4-27.7c14.7-16.5,34.1-29.9,45.8-49c10.4-17,15.2-37.6,15.8-57.4C381.6,115.9,369.6,68.7,336.2,43.7z M183.9,198.2c-8.2,3.5-17.4,3.3-24.7-2.8c-7-5.9-11.4-15.3-11.6-24.4c-0.5-24.8,25.1-34.4,40.3-49c4.1-4,7.7-8.4,10-13.6c2-4.6,3-9.4,4.6-14.1c3-9.3,7.7-19.1,18.2-21.2c23.2-4.7,27.9,24.5,24.7,40.9c-3.9,19.7-12.9,38.9-24.5,55.1C211.8,181.3,199.4,194.7,183.9,198.2z M227.3,245.6c-13.5-1.4-24-11.4-19.8-25.4c3.7-12.2,14.2-23.5,25.6-28.9c4.4-2.1,7.5,2.2,6.9,6.1c0,0.1,0.1,0.2,0.1,0.3C244.1,211.4,252.8,248.3,227.3,245.6z M283.6,312.7c-0.6,12.1-1.5,24.4-5.6,35.9c-3,8.4-9.3,20.6-19.3,22c-8.4,1.2-14-6.5-16.8-13.4c-3.4-8.1-4.2-16.3-5-24.9c-1.5-16.4-3.6-32.9-2.8-49.4c0.7-14.3,2.7-34.8,18.5-40.5c3.2-1.2,5.7,0.6,6.7,3.1c11.9,2.2,19.2,13.8,22.2,25.3C285.3,284.3,284.3,298.7,283.6,312.7z M285.5,235.6c-9.4,8.1-19.1-0.9-24.1-9.2c-3-5-5.5-10.3-8-15.6c-1-2.1-2-4.2-3.1-6.3c-0.5-1-1.1-2-1.7-2.9c-0.1-0.2-1.5-1.9-0.7-1c-2.4-2.5-1.8-5.9,0-8c-0.2-2.3,0.7-4.7,3.3-5.9c12.4-5.7,27.7,2.5,35.7,12C296.2,209.8,296.9,225.7,285.5,235.6z M324.9,189.2c-1,0.7-2.4,1-4,0.7c-0.1,0-0.2,0-0.3-0.1c-1.9,0.2-3.8,0.2-5.8,0.1c-2-0.1-3.6-1.1-4.5-2.5c-9.3-2.3-17.9-5.5-25.3-12.7c-10.9-10.6-18.1-25.2-22.2-39.6c-3.1-11-7-24.3-5-35.8c1.5-8.3,5.8-17.7,13.5-21.9c7.4-4.1,16.5-3.8,22.5,2.8c4.1,4.4,6.8,9.5,8.6,15.2c1.4,4.3,2.7,9.1,5.1,13c6.1,9.6,17,11.7,26.3,16.8c10.3,5.5,18.1,14.6,20,26.3C357.2,171.2,342.6,185.8,324.9,189.2z"/><path fill="#127274" d="M449.5,399.2c4.4-13.5,6.7-27.5,1.6-41.2c-8.3-22.4-31.3-31.3-46-48.3c-16.6-19.3-17.4-46.2-16.5-70.5c0.3-9.5,1-19.1,0.3-28.6c-0.4-5.1-0.8-12.5-3.6-17.8c-3.9,13-9.9,25.4-18.6,35.9c-14.3,17.4-33.2,30.7-46.4,49c-6.3,8.8-10.3,18.4-11.9,29c-1.5,10-1.6,20.2-2,30.3c-0.9,20-3.5,41.5-20.3,54.8c-14.9,11.9-36.4,17.2-51.7,3.3c-13.1-11.9-19.5-30.2-23.7-46.9c-5.1-20.3-8.9-40.3-22.8-56.8c-14-16.6-34.1-25.8-53.9-34c-5,4.5-12.9-2.5-8-7.5c0.1-0.2,0.2-0.3,0.3-0.4c0.3-1.1,0.8-2.1,1.5-2.8c-0.2-0.5-0.2-1.1-0.2-1.7c0.4-19.5-3.6-38.8-7.9-57.7c-5.6-24.9-12.3-50.2-10.8-76c1-18.2,7.3-35,17.5-49.7c-2.1,2-4.1,4-6.1,6.1c-16.6,17.3-31.8,38.3-38.8,61.5c-8.5,28.3-5.6,57.5-2.4,86.4c2.6,23.8,3.8,47.7,5.5,71.6c1.5,21.5,3.7,45,15,63.9c12.9,21.7,36.2,32.4,59,40.7c12.4,4.5,25.3,8.4,37.1,14.3c12.8,6.5,24.8,14.4,36.7,22.5c22.7,15.6,47,34.7,75.5,37c14.1,1.1,28.3-0.9,42.2-3.4c13.6-2.4,27.3-6,41.1-6.3c19.3-0.5,36.6,5.1,51.8,15.4c-2.9-10.2-5.4-20.4-5-31C438.4,425.8,445.2,412.7,449.5,399.2z"/><path d="M463.7,362.6c-2.1-11.4-7.9-21.1-15.6-29.7c-7.5-8.3-16.7-14.9-25.4-21.9c-10.3-8.4-17.1-17.8-20.5-30.8c-5.6-21.2-1.7-43.9-2.2-65.5c-0.3-12.1-1.9-26.5-11.6-34.7c0.5-2.4,0.9-4.7,1.2-7.1c6.1-41.1-3.2-87.9-29.4-120.8C334.4,19.8,289.4,6.9,249.6,5.7c-23.9-0.7-48.2,3.6-70.1,13.2c-1-0.3-2.1-0.4-3.3,0c-24.9,6.9-46.5,23.3-64.3,41.6C93.6,79.1,78.5,101.9,70.5,127c-8.8,27.7-6.1,57.5-3,85.9c2.6,24.1,4.1,48.1,5.7,72.3c1.4,22,3.8,44.9,13.4,65.1c10.5,22,29.9,35.9,51.8,45.4c12.3,5.4,25.1,9.4,37.7,14.2c13.1,5,25.2,11.6,37,19.2c23.5,15.1,45.8,34.4,72.7,43.3c29.8,9.8,60.9,1.3,90.7-3.9c12.9-2.2,25.9-2.3,38.6,1.2c12.9,3.5,24,11.5,33.7,20.5c4.4,4.1,10-1,8.8-6c-3.1-12.9-8.1-25.6-9-38.9c-0.9-14.3,6.1-27.8,10.6-40.9C464.1,390.4,466.4,377.2,463.7,362.6z M161.2,41.7c16.6-12,36.4-19.4,56.5-22.8c20.7-3.5,42-2.9,62.6,1.3c19.5,4,39.8,11.4,55.9,23.5c33.4,25.1,45.4,72.2,44.1,112.1c-0.7,19.8-5.4,40.4-15.8,57.4c-11.7,19.1-31.1,32.5-45.8,49c-7.3,8.2-13.6,17.4-17.4,27.7c-3.6,9.8-4.7,20.2-5.3,30.6c-1.1,18.8,1,41.4-11.3,57.2c-5.8,7.5-15.7,13.2-25,14.7c-8,1.3-14.7-2-20.2-7.6c-11.8-11.8-16.5-31-20-46.8c-4.8-21-11.2-40.2-25.8-56.6c-14.8-16.6-35.7-26.1-56-34.4c0.5-0.8,0.9-1.8,0.9-3c0.5-25.8-6.5-51-12-76c-5.4-24.4-10.3-50.2-3.8-74.8C128.2,72.4,144,54.1,161.2,41.7z M449.5,399.2c-4.4,13.5-11.2,26.6-11.8,41c-0.4,10.6,2.1,20.9,5,31c-15.3-10.3-32.5-15.8-51.8-15.4c-13.8,0.3-27.6,3.9-41.1,6.3c-13.9,2.5-28.1,4.6-42.2,3.4c-28.5-2.3-52.8-21.4-75.5-37c-11.8-8.1-23.8-16-36.7-22.5c-11.8-6-24.7-9.8-37.1-14.3c-22.8-8.4-46.1-19-59-40.7c-11.3-18.9-13.5-42.4-15-63.9c-1.7-23.9-2.9-47.7-5.5-71.6c-3.2-28.9-6-58.1,2.4-86.4c7-23.2,22.2-44.2,38.8-61.5c2-2.1,4-4.1,6.1-6.1c-10.2,14.7-16.4,31.5-17.5,49.7c-1.5,25.7,5.2,51.1,10.8,76c4.3,18.9,8.3,38.2,7.9,57.7c0,0.6,0.1,1.2,0.2,1.7c-0.7,0.7-1.3,1.7-1.5,2.8c-0.1,0.1-0.2,0.2-0.3,0.4c-4.9,5,3,12,8,7.5c19.7,8.1,39.9,17.3,53.9,34c13.9,16.5,17.7,36.5,22.8,56.8c4.2,16.7,10.6,35,23.7,46.9c15.3,13.9,36.9,8.6,51.7-3.3c16.7-13.3,19.3-34.9,20.3-54.8c0.5-10.1,0.5-20.3,2-30.3c1.6-10.7,5.7-20.3,11.9-29c13.2-18.3,32.1-31.6,46.4-49c8.7-10.6,14.7-22.9,18.6-35.9c2.8,5.3,3.2,12.7,3.6,17.8c0.7,9.5,0.1,19.1-0.3,28.6c-0.8,24.2-0.1,51.1,16.5,70.5c14.7,17.1,37.8,25.9,46,48.3C456.2,371.7,453.9,385.7,449.5,399.2z"/><path d="M220.5 72.9c-10.5 2.2-15.2 11.9-18.2 21.2-1.5 4.7-2.5 9.5-4.6 14.1-2.4 5.2-5.9 9.7-10 13.6-15.2 14.7-40.8 24.2-40.3 49 .2 9.1 4.7 18.5 11.6 24.4 7.3 6.2 16.5 6.4 24.7 2.8 15.5-3.4 28-16.8 36.8-29.2 11.6-16.3 20.7-35.4 24.5-55.1C248.5 97.4 243.7 68.2 220.5 72.9zM231.5 123.1c-3 9.7-7.4 19.1-12.4 27.9-7.4 13.1-19.4 30.7-35 35.6-1-.1-2.1.2-3.2.8 0 0-.1 0-.1.1-1.5.3-3.1.5-4.7.5-1.6 0-2.7.6-3.6 1.4-11.9-1.2-18.1-20.9-10.4-31.1 6.9-9.1 16.3-15.3 25.3-22 8.9-6.6 16.3-14.4 20.9-24.6 3.6-8.1 3.7-20.5 11-26.5 9.4-7.8 15.3 6.6 16.1 13.7C236.2 107.1 233.9 115.5 231.5 123.1zM354.1 151.5c-1.9-11.8-9.8-20.8-20-26.3-9.4-5-20.3-7.2-26.3-16.8-2.5-3.9-3.7-8.6-5.1-13-1.9-5.7-4.5-10.7-8.6-15.2-6-6.5-15.1-6.9-22.5-2.8-7.7 4.3-12.1 13.7-13.5 21.9-2 11.5 1.9 24.8 5 35.8 4.1 14.5 11.3 29.1 22.2 39.6 7.4 7.2 16 10.4 25.3 12.7 1 1.4 2.5 2.4 4.5 2.5 1.9.1 3.9 0 5.8-.1.1 0 .2 0 .3.1 1.6.3 2.9 0 4-.7C342.6 185.8 357.2 171.2 354.1 151.5zM328.6 177c-2.3.9-4.7 1.5-7.1 1.8-11-2.4-20.5-4.2-29.1-12.2-10.1-9.3-15.8-23.7-19.5-36.6-2.9-10.1-6.7-23.2-2.9-33.5 1.9-5.3 7.4-13.3 14-10.2 4.1 1.9 6.5 7.4 7.8 11.3 1.7 5.1 3.2 10.2 5.8 15 5.3 9.9 14.7 14.9 24.7 19.2 10.6 4.5 19.8 10.7 21.2 23.1C344.6 165.1 337.6 173.4 328.6 177zM240.2 197.7c0-.1-.1-.2-.1-.3.6-3.8-2.5-8.1-6.9-6.1-11.4 5.4-21.9 16.7-25.6 28.9-4.3 14 6.3 24 19.8 25.4C252.8 248.3 244.1 211.4 240.2 197.7zM233.6 230.4c-.4 2.1-1.4 4-2.6 4.2-3.4.7-8.2-.9-10.9-2.8-3.1-2.2-3-5.8-1.9-9.1 2.2-6.3 7-12.8 12.7-17.3 1.3 5 2.3 10 2.9 15.1C234.1 223.8 234.2 227.1 233.6 230.4zM286.9 198.8c-8.1-9.5-23.3-17.7-35.7-12-2.6 1.2-3.5 3.6-3.3 5.9-1.8 2.1-2.4 5.4 0 8-.9-.9.5.8.7 1 .6.9 1.2 1.9 1.7 2.9 1.1 2.1 2.1 4.2 3.1 6.3 2.5 5.3 5 10.6 8 15.6 5 8.3 14.7 17.3 24.1 9.2C296.9 225.7 296.2 209.8 286.9 198.8zM283.2 218.2c-.3 3.4-2.9 8.5-6 9.6.4-.2-1-.2-.1 0-.6-.1-.3-.1-1.3-.6-.6-.3-1.8-1.8-2.5-2.6-2.7-3.4-4.8-7.5-6.8-11.4-2.7-5.5-5-11.7-8.5-16.9 7.5-1.2 15.8 4.2 20.4 9.6C281.4 209.2 283.7 213.6 283.2 218.2zM281.6 270.7c-3.1-11.5-10.4-23.1-22.2-25.3-1-2.4-3.5-4.2-6.7-3.1-15.8 5.7-17.8 26.2-18.5 40.5-.8 16.5 1.2 33 2.8 49.4.8 8.6 1.6 16.8 5 24.9 2.9 6.8 8.4 14.6 16.8 13.4 10-1.4 16.2-13.6 19.3-22 4.1-11.5 5.1-23.8 5.6-35.9C284.3 298.7 285.3 284.3 281.6 270.7zM271.4 328.5c-1.3 10.1-3.9 23.4-12.4 30.2-4.7 3.8-8.1-8.8-9.1-12.2-1.9-7-1.9-14.3-2.6-21.5-1.8-17.2-3.6-35-1.2-52.2.8-5.4 2.1-12.9 6.2-17.3.8.4 1.7.6 2.7.5 8.2-.4 12.5 7.5 15 14.3 2.8 7.5 3.1 14.8 3.1 22.7C273 304.8 272.9 316.7 271.4 328.5z"/></svg>